<svg xmlns="http://www.w3.org/2000/svg" width="324" height="349.3" version="1.0" viewBox="0 0 243 262"><path fill="#9A3247" d="M193.1 1.2a38.9 38.9 0 0 0-27.9 21.6 26.4 26.4 0 0 0-2.7 13.3c0 7.3.2 8.1 5.9 19.5 5.5 11.1 11.3 21 24.2 41.2a119 119 0 0 1 5.7 9.5c.6 1.6.5 1.6 6.7-8.3l8.5-13.5 6.7-10.6c2-3.1 6.2-10.9 9.4-17.4 5.8-11.6 5.9-11.9 5.9-20.4A30 30 0 0 0 224 10.7a35.2 35.2 0 0 0-30.9-9.5zm13.6 19.9c11.2 5.4 12.4 21.7 2.2 29a19.7 19.7 0 0 1-17.4 1.4c-7.8-3.8-11.6-14.5-7.7-22.1 2.4-4.7 4.6-6.8 9.2-8.8 4.8-2.1 8.6-2 13.7.5z"/><path fill="#426133" d="M81.3 111.4a3127.7 3127.7 0 0 0-52.9 30.9c-1 1 .4 5.4 2 6 .7.3 6.8-2.6 13.5-6.4 6.6-3.8 12.3-6.9 12.6-6.9.3 0 .5 16.4.5 36.4 0 35.4.1 36.5 2 37.1 1 .3 2.8.1 4-.5 2-1 2-1.9 2-39.8l.1-38.7 8.7-4.9 34.4-19.8A562.4 562.4 0 0 1 134.8 90c.5 0 16.4 8.9 35.3 19.9l34.4 19.8.3 59.7.2 59.6h-31.8c-34 0-36.5-.3-41.6-4.9-2.5-2.3-6.3-8.9-5.4-9.5l6.6-1.9a50 50 0 0 0 29.7-20.2c8.1-11.3 11.7-22.8 14-44 1.4-13.5 2.7-17.8 6.9-22.3 3.2-3.6 7-5.2 12.5-5.2 5.8 0 6.9-1.1 4.6-4.6-2.4-3.6-6.9-6.1-13.5-7.2-3.2-.6-8.2-2.3-11.1-3.8a49.7 49.7 0 0 0-22.3-6.4c-14.5.1-22.1 8.6-31.6 35.5a27.4 27.4 0 0 1-8.8 14.5c-3.1 3.1-10.8 11-16.9 17.7a202.8 202.8 0 0 1-18 17.3 113.7 113.7 0 0 1-36 17.2l-9.5 2.2-3.4 5.2c-1.9 2.9-9.4 10.9-16.7 17.8-11.8 11.3-13 12.7-11.6 14.1 1.3 1.4 3 1.1 15.5-2.4 35.2-10 60.6-23.6 79.8-42.7a98.3 98.3 0 0 0 26.6-39.9l2.6-7 4.6-.3c12.3-.8 16.2 9.6 9.3 24.6-7.2 15.7-20.9 26.5-44.7 35-6.7 2.5-10.3 4.3-10.3 5.2 0 1.2.9 1.4 4 1 5.6-.7 13.8-.6 21.7.4 6.1.7 6.7 1 7.8 3.7.7 1.6 2.6 4.8 4.1 6.9l2.9 4H65.1l-.3-2.3c-.2-1.8-1-2.3-4.1-2.5l-3.7-.3V256l77.8-.2 77.7-.3.3-60.3c.1-33.1.4-60.2.6-60.2l12.5 7.1c11.8 6.8 12.3 7 14.2 5.3 3.5-3.1 2.3-4.7-7.8-10.6l-53.2-30.7a1034.5 1034.5 0 0 0-44.5-25c-.6 0-24.6 13.6-53.3 30.3zm77.8 15.7c2.9.6 8.9 2.9 13.3 5 4.4 2.2 8.5 3.9 9.1 3.9.6 0-.9 2.1-3.5 4.8-5.7 5.9-7.8 12-9.1 27-1.9 21.8-7.2 35.7-17.3 45.7a45.3 45.3 0 0 1-32.9 13.5h-5.2l5.4-3c21.8-12.1 34.1-32.2 30.7-50.4-1.4-7.1-9.8-13.5-17.8-13.6H128l2.6-7.3c5.5-15.2 10.8-22.6 18-25.2 4.8-1.7 4.3-1.7 10.5-.4zm-49.9 60.6c-13.9 23.4-42.1 45.2-73.2 56.6-15.6 5.7-15.2 5.8-8.1-1.9 3.4-3.8 6.9-8 7.8-9.4 1.2-2.1 3.2-3 10.4-4.9 10.5-2.8 26-10.1 34.6-16.4 8-5.9 18.3-15.7 25.8-24.5 3.3-3.9 6.2-6.9 6.4-6.7.2.3-1.5 3.5-3.7 7.2z"/></svg>