<?xml version="1.0" standalone="no"?>
<!DOCTYPE svg PUBLIC "-//W3C//DTD SVG 20010904//EN"
 "http://www.w3.org/TR/2001/REC-SVG-20010904/DTD/svg10.dtd">
<svg version="1.0" xmlns="http://www.w3.org/2000/svg"
 width="1542.000000pt" height="262.000000pt" viewBox="0 0 1542.000000 262.000000"
 preserveAspectRatio="xMidYMid meet">

<g transform="translate(0.000000,262.000000) scale(0.100000,-0.100000)"
fill="#426133" stroke="none">
<path fill="#9A3247" d="M1931 2608 c-115 -17 -227 -105 -279 -216 -21 -46 -27 -72 -27 -133
0 -73 2 -81 59 -195 55 -111 113 -210 242 -412 29 -46 55 -88 57 -95 6 -16 5
-16 67 83 29 47 68 108 85 135 18 28 48 75 67 106 20 31 62 109 94 174 58 116
59 119 59 204 0 111 -29 175 -115 254 -89 82 -189 113 -309 95z m136 -199
c112 -54 124 -217 22 -290 -44 -31 -124 -37 -174 -14 -78 38 -116 145 -77 221
24 47 46 68 92 88 48 21 86 20 137 -5z"/>
<path d="M813 1506 c-288 -166 -525 -305 -529 -309 -10 -10 4 -54 20 -60 7 -3
68 26 135 64 66 38 123 69 126 69 3 0 5 -164 5 -364 0 -354 1 -365 20 -371 10
-3 28 -1 40 5 20 10 20 19 20 398 l1 387 87 49 c48 27 203 116 344 198 141 81
261 148 266 148 5 0 164 -89 353 -199 l344 -198 3 -597 2 -596 -318 0 c-340 0
-365 3 -416 49 -25 23 -63 89 -54 95 2 1 32 10 66 19 132 36 223 98 297 202
81 113 117 228 140 440 14 135 27 178 69 223 32 36 70 52 125 52 58 0 69 11
46 46 -24 36 -69 61 -135 72 -32 6 -82 23 -111 38 -87 44 -158 64 -223 64
-145 -1 -221 -86 -316 -355 -27 -79 -38 -97 -88 -145 -31 -31 -108 -110 -169
-177 -62 -67 -143 -144 -180 -173 -96 -72 -247 -144 -360 -172 l-95 -22 -34
-52 c-19 -29 -94 -109 -167 -178 -118 -113 -130 -127 -116 -141 13 -14 30 -11
155 24 352 100 606 236 798 427 139 137 206 238 266 399 l26 70 46 3 c123 8
162 -96 93 -246 -72 -157 -209 -265 -447 -350 -67 -25 -103 -43 -103 -52 0
-12 9 -14 40 -10 56 7 138 6 217 -4 61 -7 67 -10 78 -37 7 -16 26 -48 41 -69
l29 -40 -299 0 -300 0 -3 23 c-2 18 -10 23 -41 25 l-37 3 0 -60 0 -61 778 2
777 3 3 603 c1 331 4 602 6 602 2 0 58 -32 125 -71 118 -68 123 -70 142 -53
35 31 23 47 -78 106 -54 31 -293 169 -532 307 -239 138 -439 251 -445 250 -6
0 -246 -136 -533 -303z m778 -157 c29 -6 89 -29 133 -50 44 -22 85 -39 91 -39
6 0 -9 -21 -35 -48 -57 -59 -78 -120 -91 -270 -19 -218 -72 -357 -173 -457
-91 -90 -202 -135 -329 -135 l-52 0 54 30 c218 121 341 322 307 504 -14 71
-98 135 -178 136 l-38 0 26 73 c55 152 108 226 180 252 48 17 43 17 105 4z
m-499 -606 c-139 -234 -421 -452 -732 -566 -156 -57 -152 -58 -81 19 34 38 69
80 78 94 12 21 32 30 104 49 105 28 260 101 346 164 80 59 183 157 258 245 33
39 62 69 64 67 2 -3 -15 -35 -37 -72z"/>
<path d="M11315 1421 c-150 -25 -252 -77 -355 -180 -122 -123 -180 -265 -180
-441 0 -186 56 -326 179 -450 89 -90 179 -139 303 -164 420 -86 778 197 778
614 0 287 -186 534 -456 604 -74 19 -204 27 -269 17z m195 -306 c150 -53 234
-242 186 -418 -21 -75 -57 -130 -114 -174 -56 -42 -110 -56 -198 -51 -115 8
-188 61 -243 178 -22 47 -26 69 -26 150 0 88 3 101 33 162 36 74 93 128 158
152 52 19 151 20 204 1z"/>
<path d="M12685 1421 c-150 -25 -252 -77 -355 -180 -122 -123 -180 -265 -180
-441 0 -186 56 -326 179 -450 89 -90 179 -139 303 -164 420 -86 778 197 778
614 0 287 -186 534 -456 604 -74 19 -204 27 -269 17z m195 -306 c150 -53 234
-242 186 -418 -21 -75 -57 -130 -114 -174 -56 -42 -110 -56 -198 -51 -115 8
-188 61 -243 178 -22 47 -26 69 -26 150 0 88 3 101 33 162 36 74 93 128 158
152 52 19 151 20 204 1z"/>
<path d="M13930 1419 c-127 -21 -264 -118 -307 -216 -26 -58 -24 -205 4 -264
45 -100 124 -162 299 -236 59 -24 124 -56 145 -70 71 -47 71 -120 -1 -155 -69
-35 -187 -16 -324 52 -44 22 -81 38 -82 37 -4 -5 -132 -223 -142 -243 -11 -20
-6 -25 56 -57 318 -167 739 -107 847 120 33 68 40 152 22 229 -37 149 -119
225 -334 310 -113 44 -172 80 -179 108 -18 75 29 110 142 103 57 -3 86 -11
142 -40 l71 -36 71 119 c38 65 70 124 70 129 0 27 -181 94 -295 111 -82 11
-130 11 -205 -1z"/>
<path d="M2940 1265 l0 -135 140 0 140 0 0 -470 0 -470 155 0 155 0 0 470 0
470 140 0 140 0 0 135 0 135 -435 0 -435 0 0 -135z"/>
<path d="M3930 796 l0 -606 160 0 160 0 0 236 c0 167 3 235 11 232 6 -2 68
-108 138 -236 l126 -232 344 2 344 3 41 112 41 113 226 0 226 0 37 -102 c20
-57 40 -109 45 -116 6 -9 47 -12 173 -10 l165 3 -243 600 -243 600 -159 3
-159 2 -67 -162 c-36 -90 -144 -356 -240 -591 -95 -235 -177 -429 -181 -430
-4 -1 -70 103 -146 232 l-138 233 59 30 c72 35 123 92 151 167 29 78 24 253
-10 322 -34 71 -83 122 -153 160 l-63 34 -322 3 -323 3 0 -605z m508 340 c57
-29 77 -110 47 -182 -20 -48 -78 -73 -167 -74 l-68 0 0 141 0 142 78 -5 c45
-3 91 -12 110 -22z m1141 -268 c30 -84 56 -159 59 -165 3 -10 -25 -13 -118
-13 -67 0 -120 4 -118 8 2 4 28 78 58 165 30 86 57 157 60 157 3 0 29 -69 59
-152z"/>
<path d="M6062 1388 c3 -7 99 -280 213 -606 l209 -592 179 2 179 3 209 594
c115 326 209 597 209 602 0 6 -74 8 -176 7 l-176 -3 -121 -393 c-66 -216 -124
-389 -128 -385 -4 5 -60 182 -125 396 l-118 387 -179 0 c-139 0 -178 -3 -175
-12z"/>
<path d="M7390 795 l0 -605 395 0 395 0 0 140 0 140 -235 0 -235 0 0 100 0
100 235 0 235 0 0 130 0 130 -235 0 -235 0 0 100 0 100 235 0 235 0 0 135 0
135 -395 0 -395 0 0 -605z"/>
<path d="M8390 795 l0 -605 370 0 370 0 0 140 0 140 -210 0 -210 0 0 465 0
465 -160 0 -160 0 0 -605z"/>
<path d="M9770 796 l0 -606 160 0 160 0 0 236 c0 167 3 235 11 232 6 -2 68
-108 138 -236 l126 -232 178 0 c166 0 177 1 168 17 -5 10 -70 121 -145 247
l-135 228 59 30 c72 35 123 92 151 167 29 78 24 253 -10 322 -34 71 -83 122
-153 160 l-63 34 -322 3 -323 3 0 -605z m508 340 c57 -29 77 -110 47 -182 -20
-48 -78 -73 -167 -74 l-68 0 0 141 0 142 78 -5 c45 -3 91 -12 110 -22z"/>
<path d="M14540 1265 l0 -135 140 0 140 0 0 -470 0 -470 155 0 155 0 0 470 0
470 140 0 140 0 0 135 0 135 -435 0 -435 0 0 -135z"/>
</g>
</svg>
