<svg xmlns="http://www.w3.org/2000/svg" xml:space="preserve" style="fill-rule:evenodd;clip-rule:evenodd;stroke-linecap:round" viewBox="0 0 500 820">
  <defs fill="#000000">
    <linearGradient id="a" x1="0" x2="1" y1="0" y2="0" gradientTransform="matrix(0 -37.57 37.57 0 416.5 541)" gradientUnits="userSpaceOnUse" fill="#000000">
      <stop offset="0" stop-color="#9a3247" fill="#000000"/>
      <stop offset="1" stop-color="#9a3247" fill="#000000"/>
    </linearGradient>
    <linearGradient id="b" x1="0" x2="1" y1="0" y2="0" gradientTransform="matrix(0 -19.05 19.05 0 414.5 522.5)" gradientUnits="userSpaceOnUse" fill="#000000">
      <stop offset="0" stop-color="#9a3247" fill="#000000"/>
      <stop offset="1" stop-color="#9a3247" fill="#000000"/>
    </linearGradient>
  </defs>
  <path fill="#FFFFFF" d="M341.9 266.3a91.7 91.7 0 1 1-183.7 0 91.7 91.7 0 1 1 183.7 0z"/>
  <path fill="url(#a)" stroke="url(#b)" stroke-width="1.1" d="M416.5 503.6c-6.5 0-12 5.7-12 11.9 0 2.8 1.6 6.3 2.7 8.7l9.3 17.9 9.3-17.9c1-2.4 2.7-5.8 2.7-8.7 0-6.2-5.4-11.9-12-11.9Zm0 7.2c2.6 0 4.7 2 4.7 4.7a4.7 4.7 0 1 1-4.7-4.7Z" transform="translate(-7889.1 -9807.4) scale(19.54)"/>
</svg>